<svg viewBox="0 0 24 24" fill="currentColor" xmlns="http://www.w3.org/2000/svg">
  <path d="M21.5 11c-.2-1.8-1.2-3.4-2.8-4.4.3-.5.5-1.1.5-1.8 0-1.9-1.5-3.5-3.4-3.8-.4 0-.8.2-.9.6-.1.4.1.8.5 1 1.2.2 2.1 1.2 2.1 2.5 0 .5-.1.9-.4 1.3-1.3-.5-2.8-.7-4.3-.7-4.8 0-8.8 2.7-10.5 6.6-.2.4 0 .9.4 1.1.4.2.9 0 1.1-.4 1.4-3.3 4.8-5.5 8.7-5.5 1.6 0 3.1.3 4.4.9-.6.8-1.5 1.4-2.5 1.6-.4.1-.7.5-.6.9.1.4.5.7.9.6 1.5-.3 2.8-1.2 3.6-2.4 1.1.9 1.8 2.2 2 3.7.1.8.7 1.4 1.4 1.4h.2c.4 0 .8-.4.7-.9zM6 13c-.6 0-1 .4-1 1s.4 1 1 1 1-.4 1-1-.4-1-1-1zm6 5c-2.2 0-4-1.3-4-3h1.5c0 1 1.1 1.5 2.5 1.5s2.5-.5 2.5-1.5H16c0 1.7-1.8 3-4 3z"/>
</svg>